<?xml version="1.0" encoding="UTF-8"?>
<svg width="108px" height="139px" viewBox="0 0 108 139" version="1.1" xmlns="http://www.w3.org/2000/svg" xmlns:xlink="http://www.w3.org/1999/xlink">
    <title>1C201E90-CD02-4D7E-871B-BC189C5B9B4F</title>
    <defs>
        <polygon id="path-1" points="-3.47773312e-15 0 63.6594899 0 63.6594899 46.1380552 -3.47773312e-15 46.1380552"></polygon>
        <polygon id="path-3" points="0 6.95546624e-15 10.1871629 6.95546624e-15 10.1871629 9.47961772 0 9.47961772"></polygon>
        <polygon id="path-5" points="0 -1.39109325e-14 10.4694946 -1.39109325e-14 10.4694946 9.53692498 0 9.53692498"></polygon>
    </defs>
    <g id="Page-1" stroke="none" stroke-width="1" fill="none" fill-rule="evenodd">
        <g id="3" transform="translate(-135.000000, -35.000000)">
            <g id="Group-38" transform="translate(135.000000, 35.000000)">
                <g id="Group-3" transform="translate(21.895137, 0.000000)">
                    <mask id="mask-2" fill="white">
                        <use xlink:href="#path-1"></use>
                    </mask>
                    <g id="Clip-2"></g>
                    <path d="M-3.47773312e-15,37.2653523 C0.571674592,37.6295011 1.1394336,37.9975656 1.70327704,38.3695456 C2.44332154,38.8550775 3.17945047,39.3406093 3.91166382,39.81831 C8.29319717,42.6962609 13.0506261,45.8208932 18.2270221,46.1184773 C18.4502101,46.130224 18.6773137,46.1380552 18.8965862,46.1380552 C24.4214687,46.1380552 28.5602361,42.1715732 31.7945047,37.2614367 C31.7670957,37.2144497 31.7318554,37.1713783 31.7044464,37.128307 C31.7436022,37.155716 31.7866736,37.1831251 31.8258294,37.2066186 C31.8689007,37.1831251 31.9158877,37.155716 31.9550435,37.128307 C31.9198033,37.1713783 31.8963098,37.2144497 31.8610696,37.2614367 C35.0914226,42.1715732 39.2380212,46.1380552 44.7589881,46.1380552 C44.9821761,46.1380552 45.2053642,46.130224 45.4324678,46.1184773 C50.6088637,45.8208932 55.3662927,42.6962609 59.747826,39.81831 C60.2842604,39.4698235 60.8206948,39.1135057 61.3571292,38.7611036 C62.1206672,38.2599094 62.8842051,37.7547997 63.6594899,37.2653523 C62.4809005,36.5174766 61.3179734,35.7382763 60.1628775,34.9786539 C60.0258322,34.8925111 59.8848713,34.7946217 59.747826,34.7084789 C58.537912,33.9136163 57.3005889,33.1030914 56.0319412,32.3317222 C55.8635713,32.2299171 55.6952014,32.1281121 55.5229159,32.0302226 C54.4970341,31.4233078 53.4515744,30.8516332 52.3865368,30.3465235 C52.2025045,30.2642963 52.0145567,30.174238 51.8226933,30.0920108 C49.7670142,29.1757652 47.636939,28.5375258 45.4324678,28.4083117 C45.2014486,28.3926493 44.9782606,28.3887338 44.7511569,28.3887338 C43.4081132,28.3887338 42.1433811,28.6275841 40.9530449,29.0543823 C40.6554609,29.1640185 40.3578769,29.2854014 40.0642084,29.4185311 C40.0837863,29.3676286 40.1033642,29.3167261 40.1307733,29.2697391 C40.1307733,29.261908 40.1346888,29.2540768 40.1346888,29.2501612 C40.4675131,28.7058957 40.7650971,28.1577146 41.0235254,27.5821244 C41.0235254,27.5742932 41.0274409,27.5664621 41.0313565,27.5625465 C41.8849528,25.6674061 42.3195821,23.5960646 42.190368,21.3328597 C42.190368,21.3093662 42.190368,21.2897883 42.1864524,21.2702104 C42.1747057,21.0548535 42.1551278,20.8473278 42.1355499,20.631971 L42.1355499,20.6280554 C41.5599597,14.840829 38.0594318,9.51172547 34.8212476,4.57417985 C33.8345216,3.07059736 32.8125554,1.54743698 31.8258294,-0.00313246352 C30.8469345,1.54743698 29.8249683,3.07059736 28.8343267,4.57417985 C25.6039737,9.5078099 22.0995301,14.8447446 21.5278555,20.6280554 C21.5004465,20.8434123 21.4847842,21.0548535 21.4691218,21.2702104 C21.4691218,21.2897883 21.4691218,21.3093662 21.4652063,21.3328597 C21.3399077,23.5960646 21.7706215,25.6634905 22.6281333,27.5586309 C22.6320489,27.5586309 22.6320489,27.5625465 22.6320489,27.5703777 C22.8865616,28.1498834 23.1880612,28.7058957 23.524801,29.2501612 C23.5287166,29.2540768 23.5287166,29.261908 23.5287166,29.2697391 C23.5561257,29.3167261 23.5757036,29.3676286 23.5952815,29.4224467 C23.3055286,29.2854014 23.0079445,29.1640185 22.7064449,29.0543823 C21.5161088,28.6275841 20.2513766,28.3887338 18.9044173,28.3887338 C18.6812293,28.3887338 18.4541257,28.3926493 18.2270221,28.4083117 C16.0225509,28.5375258 13.8924757,29.1757652 11.8328809,30.0920108 C11.6449331,30.174238 11.4530697,30.2642963 11.2690375,30.3465235 C10.2039999,30.8516332 9.15854021,31.4233078 8.13265841,32.0302226 C7.9642885,32.1281121 7.79591858,32.2299171 7.62363309,32.3317222 C6.35890094,33.1030914 5.11766227,33.9136163 3.91166382,34.7084789 C3.47311893,34.9943162 3.02674288,35.2879847 2.58819798,35.5777375 C1.73068609,36.141581 0.873174206,36.70934 -3.47773312e-15,37.2653523" id="Fill-1" fill="#6AC8CA" mask="url(#mask-2)"></path>
                </g>
                <path d="M13.2836031,78.4556813 C13.7064857,78.3617074 14.1293683,78.2716491 14.5522508,78.1855063 C15.1082631,78.0680389 15.6564442,77.9584027 16.2046253,77.8448509 C19.4819653,77.1596245 23.0451425,76.41958 25.5197887,74.2190244 C25.6255094,74.1250505 25.73123,74.0232454 25.8330351,73.9253559 C28.3272592,71.4272163 28.4055707,67.7661495 27.6459483,64.0855049 C27.6146237,64.0776737 27.5793835,64.0737582 27.5480589,64.065927 C27.5754679,64.0580958 27.6107081,64.0541803 27.6420328,64.0463491 C27.6459483,64.0150245 27.6537795,63.9836998 27.6576951,63.9562908 C27.6655262,63.991531 27.6733574,64.01894 27.677273,64.0541803 C31.3579176,64.8177182 35.0189844,64.7354911 37.517124,62.2373514 C37.6150135,62.1394619 37.7168186,62.0376569 37.8107925,61.9241051 C40.0152637,59.4494589 40.7553082,55.8901972 41.4327034,52.6128573 C41.5188462,52.2134682 41.6010733,51.8062479 41.6833005,51.4068588 C41.8007679,50.8351842 41.9182353,50.2635096 42.0474494,49.6879195 C41.1781907,49.887614 40.301101,50.0598995 39.4357579,50.2400161 C39.3300373,50.259594 39.2243166,50.2830875 39.1225116,50.3026654 C38.2180127,50.4866976 37.293936,50.6824766 36.3698592,50.9095802 C36.2484763,50.9409049 36.1270933,50.9683139 36.0057104,50.9996385 C35.2695814,51.1915019 34.5373681,51.4068588 33.8325638,51.6574559 C33.7072653,51.7044428 33.5819667,51.7514298 33.4605838,51.7984167 C32.11754,52.3113576 30.8645546,52.9887529 29.8112638,53.9245764 C29.7016275,54.0224658 29.5959069,54.1203553 29.4941018,54.226076 C28.887187,54.8329908 28.4251486,55.510386 28.0805777,56.2425994 C27.9944349,56.4266316 27.9122077,56.6145794 27.8417273,56.8064428 C27.826065,56.7751182 27.8143183,56.7437935 27.8025715,56.7085533 C27.7986559,56.7046377 27.7986559,56.7007222 27.7986559,56.6968066 C27.704682,56.3052486 27.5872147,55.9176063 27.4462538,55.5417107 C27.4423382,55.5377951 27.4384226,55.5338795 27.4423382,55.5338795 C26.9685531,54.2887252 26.2285086,53.1571228 25.1478087,52.1938903 C25.1360619,52.1821435 25.1282308,52.1743124 25.1203996,52.1664812 C25.0185946,52.0764229 24.9128739,51.9863646 24.8071533,51.9041374 L24.8032377,51.9002218 C21.9292024,49.543043 17.939227,48.7168558 14.2468356,47.9533178 C13.1191488,47.7144674 11.971884,47.4912794 10.8285348,47.2328512 C11.0830475,48.3762004 11.3101511,49.5273807 11.5450859,50.6550676 C12.3125394,54.3435434 13.1387267,58.3374343 15.4919899,61.2114696 C15.5781326,61.3211058 15.668191,61.4229109 15.7582493,61.5286316 C15.7660804,61.5364627 15.7778272,61.5442939 15.7856583,61.5560406 C16.7488909,62.6367405 17.8804933,63.3728694 19.121732,63.8466546 C19.1256476,63.8466546 19.1256476,63.8466546 19.1295632,63.8505701 C19.5054588,63.9954466 19.8931011,64.112914 20.2924902,64.2029723 C20.2964058,64.2029723 20.3003214,64.2068879 20.304237,64.2068879 C20.3355616,64.2186346 20.3708018,64.2342969 20.4021265,64.2499592 C20.2102631,64.3204397 20.0183997,64.3987513 19.8343674,64.4888096 C19.1021541,64.8333806 18.4247589,65.2954189 17.8139285,65.9023337 C17.716039,66.0002232 17.6142339,66.1098594 17.52026,66.2194957 C16.580521,67.2727865 15.9070413,68.5218564 15.3901848,69.8688157 C15.3431979,69.9901986 15.2962109,70.1154972 15.249224,70.2368801 C14.9947113,70.9456 14.78327,71.6778134 14.5914066,72.4139423 C14.5639976,72.5353252 14.5287574,72.6606238 14.5013483,72.7820067 C14.2742447,73.7021679 14.0823813,74.6262446 13.8944335,75.5307435 C13.8278686,75.8596522 13.7613038,76.1924764 13.6908234,76.5213851 C13.5576937,77.1674557 13.4284795,77.8096107 13.2836031,78.4556813" id="Fill-4" fill="#3BB3E7"></path>
                <path d="M94.1649858,78.4556813 C93.7460188,78.3617074 93.3192207,78.2716491 92.8963381,78.1855063 C92.3442414,78.0680389 91.7921447,77.9584027 91.2439636,77.8448509 C87.9666237,77.1596245 84.4034464,76.41958 81.9288002,74.2190244 C81.8230796,74.1250505 81.7173589,74.0232454 81.6194694,73.9253559 C79.1213298,71.4272163 79.0430182,67.7661495 79.8026406,64.0855049 C79.8339652,64.0776737 79.8692055,64.0737582 79.9044457,64.065927 C79.873121,64.0580958 79.8417964,64.0541803 79.8104718,64.0463491 C79.8026406,64.0150245 79.7948094,63.9836998 79.7908939,63.9562908 C79.7869783,63.991531 79.7752315,64.01894 79.771316,64.0541803 C76.0906713,64.8177182 72.4296046,64.7354911 69.9353805,62.2373514 C69.8335755,62.1394619 69.735686,62.0376569 69.6377965,61.9241051 C67.4333253,59.4494589 66.6971964,55.8901972 66.0158855,52.6128573 C65.9297428,52.2134682 65.8514312,51.8062479 65.769204,51.4068588 C65.6478211,50.8351842 65.5303537,50.2635096 65.4011396,49.6879195 C66.2743138,49.887614 67.1514036,50.0598995 68.0167466,50.2400161 C68.1185517,50.259594 68.2242723,50.2830875 68.3260774,50.3026654 C69.2305762,50.4866976 70.1585685,50.6824766 71.0787297,50.9095802 C71.2001127,50.9409049 71.3214956,50.9683139 71.4428786,50.9996385 C72.1829231,51.1915019 72.9112209,51.4068588 73.6199407,51.6574559 C73.7452393,51.7044428 73.8666222,51.7514298 73.9919208,51.7984167 C75.3349645,52.3113576 76.5840343,52.9887529 77.6412408,53.9245764 C77.750877,54.0224658 77.8526821,54.1203553 77.9544871,54.226076 C78.5614019,54.8329908 79.0273559,55.510386 79.3719269,56.2425994 C79.4580696,56.4266316 79.5363812,56.6145794 79.6107772,56.8064428 C79.622524,56.7751182 79.6381863,56.7437935 79.6460174,56.7085533 C79.649933,56.7046377 79.649933,56.7007222 79.649933,56.6968066 C79.7478225,56.3052486 79.8613743,55.9176063 80.0062507,55.5417107 C80.0101663,55.5377951 80.0101663,55.5338795 80.0101663,55.5338795 C80.4800358,54.2887252 81.2200803,53.1571228 82.3007803,52.1938903 C82.312527,52.1821435 82.3203582,52.1743124 82.3321049,52.1664812 C82.43391,52.0764229 82.535715,51.9863646 82.6453512,51.9041374 L82.6453512,51.9002218 C85.5193865,49.543043 89.5093619,48.7168558 93.2017533,47.9533178 C94.3294402,47.7144674 95.4767049,47.4912794 96.6200541,47.2328512 C96.3655415,48.3762004 96.1384379,49.5273807 95.9074187,50.6550676 C95.1399651,54.3435434 94.3098623,58.3374343 91.9565991,61.2114696 C91.8704563,61.3211058 91.780398,61.4229109 91.6903397,61.5286316 C91.6825085,61.5364627 91.6746773,61.5442939 91.6668462,61.5560406 C90.6996981,62.6367405 89.5720112,63.3728694 88.326857,63.8466546 C88.3229414,63.8466546 88.3229414,63.8466546 88.3190258,63.8505701 C87.9431302,63.9954466 87.5554878,64.112914 87.1560987,64.2029723 C87.1521831,64.2029723 87.1482676,64.2068879 87.1482676,64.2068879 C87.1130273,64.2186346 87.0817027,64.2342969 87.0503781,64.2499592 C87.2383259,64.3204397 87.4301893,64.3987513 87.6142215,64.4888096 C88.3464349,64.8333806 89.0277457,65.2954189 89.6346605,65.9023337 C89.7364655,66.0002232 89.834355,66.1098594 89.9322445,66.2194957 C90.868068,67.2727865 91.5454632,68.5218564 92.0584041,69.8688157 C92.1053911,69.9901986 92.152378,70.1154972 92.199365,70.2368801 C92.4538776,70.9456 92.6653189,71.6778134 92.8571823,72.4139423 L92.9472406,72.7820067 C93.1743443,73.7021679 93.3662076,74.6262446 93.5541555,75.5307435 C93.6207203,75.8596522 93.6912007,76.1924764 93.7577656,76.5213851 C93.8908953,77.1674557 94.0201094,77.8096107 94.1649858,78.4556813" id="Fill-6" fill="#4764AE"></path>
                <g id="Group-10" transform="translate(0.000000, 86.089103)">
                    <mask id="mask-4" fill="white">
                        <use xlink:href="#path-3"></use>
                    </mask>
                    <g id="Clip-9"></g>
                    <polygon id="Fill-8" fill="#133053" mask="url(#mask-4)" points="9.91698794 6.14354408 10.1871629 8.34801528 1.02862271 9.47961772 0.758447729 7.27123094 4.36078078 6.82877047 3.87524893 2.89361318 0.272915884 3.33607365 -0.00117467382 1.12768687 9.16128112 6.95546624e-15 9.4314561 2.20838678 5.60593502 2.67825631 6.09146687 6.6134136"></polygon>
                </g>
                <path d="M9.38525226,105.750011 C10.1487902,105.444595 10.6930558,104.915992 11.0219644,104.172032 C11.3469575,103.424156 11.3547887,102.66845 11.0454579,101.89708 C10.7361272,101.121796 10.2075239,100.581446 9.45573269,100.268199 C8.70394144,99.9549531 7.94431904,99.9549531 7.18078106,100.260368 C6.41724308,100.565783 5.87689312,101.090471 5.55190003,101.834431 C5.22690694,102.578391 5.22299136,103.338014 5.53232213,104.109383 C5.8416529,104.880752 6.37025612,105.425018 7.11813179,105.738264 C7.86600745,106.05151 8.62171428,106.055426 9.38525226,105.750011 M6.51904814,107.715631 C5.29738737,107.120463 4.41246642,106.141569 3.86428531,104.771116 C3.31610419,103.400663 3.27303282,102.081113 3.74681793,100.808549 C4.21668745,99.5320705 5.07811492,98.6471496 6.33893149,98.1420398 C7.59583248,97.6330145 8.83315557,97.6760859 10.0548163,98.2751695 C11.2764771,98.8703376 12.1613981,99.8492325 12.7134947,101.219685 C13.2616759,102.586222 13.3008317,103.905773 12.8309621,105.182252 C12.3610926,106.45873 11.4957496,107.347567 10.2388486,107.852677 C8.978032,108.357786 7.74070891,108.3108 6.51904814,107.715631" id="Fill-11" fill="#133053"></path>
                <polygon id="Fill-13" fill="#133053" points="18.2567805 116.99947 12.6300929 118.00969 11.8078212 116.968146 14.1023508 111.736932 9.54461634 115.339265 8.16633239 113.592916 15.4101543 107.872255 17.2739701 110.233349 14.8854666 115.394083 20.4612517 114.278143 22.3211519 116.623575 15.07733 122.344236 13.6951305 120.597888"></polygon>
                <polygon id="Fill-15" fill="#133053" points="30.1487867 122.574864 29.0485089 124.043206 25.0781114 121.067366 23.9386778 122.590526 27.5096862 125.264867 26.4563953 126.67056 22.8853869 123.996219 21.7381221 125.527211 25.8338182 128.597025 24.7413715 130.05362 18.8640869 125.652509 24.3968006 118.263811"></polygon>
                <polygon id="Fill-17" fill="#133053" points="42.6907791 127.844059 44.8130231 128.509707 42.0525396 137.315845 39.92638 136.650197 37.1306563 129.71179 35.3960546 135.232757 33.2738106 134.567109 36.0382097 125.757055 38.0234084 126.379632 40.913106 133.513818"></polygon>
                <g id="Group-21" transform="translate(46.615611, 128.910131)">
                    <mask id="mask-6" fill="white">
                        <use xlink:href="#path-5"></use>
                    </mask>
                    <g id="Clip-20"></g>
                    <path d="M8.19858505,4.887566 C8.22990969,4.06529432 7.97148145,3.34874329 7.42330033,2.74965965 C6.87511922,2.150576 6.18597724,1.83341407 5.35195883,1.80208943 C4.521856,1.76684922 3.80922055,2.03310862 3.21796806,2.59303647 C2.62671557,3.15296432 2.3173848,3.8421063 2.28606016,4.66437797 C2.25081995,5.48664965 2.51316377,6.19536952 3.06134488,6.79445316 C3.609526,7.39353681 4.29866797,7.70678316 5.1287708,7.7381078 C5.96278922,7.76943243 6.67150909,7.50708861 7.26667716,6.95107634 C7.85792965,6.39897965 8.16726042,5.70983767 8.19858505,4.887566 M8.82507776,8.30586681 C7.78744922,9.17904102 6.52663265,9.58626128 5.0543748,9.53535874 C3.58211694,9.47662505 2.36045617,8.97543089 1.3854769,8.02786067 C0.414413209,7.08029046 -0.0437095808,5.92911012 0.00327737195,4.57431965 C0.0541799041,3.21561359 0.60236102,2.10358904 1.64390514,1.23041484 C2.68544926,0.361156213 3.94235025,-0.0499796242 5.4146081,0.00483848735 C6.88686595,0.0635721783 8.10852673,0.564766341 9.083506,1.51233656 C10.0545697,2.45990677 10.5166081,3.61108711 10.4657055,4.96587759 C10.4108874,6.32066806 9.86662188,7.43269261 8.82507776,8.30586681" id="Fill-19" fill="#133053" mask="url(#mask-6)"></path>
                </g>
                <polygon id="Fill-22" fill="#133053" points="63.5823529 129.900913 64.988046 137.215215 62.8031526 137.638098 61.3974596 130.31988 58.6252294 130.852399 58.2884896 129.102135 66.0217589 127.61813 66.3545832 129.368394"></polygon>
                <path d="M76.7837289,125.889793 L77.0030013,128.84214 L79.1800635,127.616564 L76.7837289,125.889793 Z M82.582702,130.067716 L80.7971978,128.783406 L77.1557089,130.831254 L77.3240788,133.020063 L75.2605685,134.18299 L74.4931149,124.025977 L76.3725931,122.972687 L84.6462123,128.908705 L82.582702,130.067716 Z" id="Fill-24" fill="#133053"></path>
                <polygon id="Fill-26" fill="#133053" points="87.3088063 126.662337 81.1613467 119.778748 82.8215523 118.294744 87.7473512 123.811795 90.9150549 120.984747 92.1406313 122.351284"></polygon>
                <path d="M95.3044194,110.781922 C94.6348554,110.304221 93.8987264,110.12802 93.0960327,110.253318 C92.2894233,110.378617 91.6433527,110.781922 91.1617364,111.459317 C90.6762046,112.136712 90.5078347,112.872841 90.6487955,113.675535 C90.7897564,114.478229 91.1930611,115.116468 91.8626252,115.594169 C92.5321892,116.075785 93.2683182,116.248071 94.0710119,116.118856 C94.8697901,115.993558 95.5119452,115.590253 95.997477,114.912858 C96.4790933,114.235463 96.6513788,113.495418 96.5182491,112.69664 C96.3772882,111.897862 95.9739835,111.259622 95.3044194,110.781922 M98.5034478,112.140628 C98.660071,113.487587 98.3115844,114.764066 97.4540725,115.962233 C96.5965606,117.160401 95.504114,117.904361 94.1767326,118.198029 C92.8493512,118.487782 91.6355215,118.237185 90.5313282,117.450153 C89.4310503,116.663122 88.8006421,115.594169 88.6440189,114.243294 C88.4873957,112.892419 88.8397979,111.619856 89.6973097,110.417773 C90.5548216,109.223521 91.6433527,108.475645 92.9707341,108.185893 C94.2981155,107.89614 95.5158607,108.142821 96.6161385,108.929853 C97.7203319,109.7208 98.3507402,110.789753 98.5034478,112.140628" id="Fill-28" fill="#133053"></path>
                <polygon id="Fill-30" fill="#133053" points="96.2050027 97.903581 96.9763718 95.8165772 105.637633 99.0077744 104.866264 101.094778 97.7947279 103.545931 103.221721 105.550708 102.454267 107.637711 93.7930058 104.446514 94.5134724 102.49264 101.780788 99.9553447"></polygon>
                <polygon id="Fill-32" fill="#133053" points="98.2489352 86.049556 100.073595 86.2531661 99.5214985 91.1867961 101.412723 91.3943219 101.910002 86.9579704 103.652435 87.1537494 103.155156 91.5940164 105.058128 91.8054577 105.629802 86.7191201 107.4388 86.9227302 106.624359 94.2213702 97.450157 93.1915728"></polygon>
                <path d="M6.46579626,80.6045513 C6.44621836,80.6045513 6.42664047,80.6045513 6.41097815,80.6006357 C5.98809557,80.5732266 5.67484922,80.2051622 5.70225828,79.7861952 C6.02725137,75.2402075 6.9904839,70.776447 8.5684624,66.5202122 C8.71333884,66.1325698 9.15188373,65.9250441 9.54735725,66.0738361 C9.94283077,66.2187126 10.1425253,66.6572574 9.99764888,67.052731 C8.47057291,71.1719205 7.53866502,75.4908046 7.22541866,79.8919158 C7.19800961,80.2952205 6.86126978,80.6045513 6.46579626,80.6045513" id="Fill-34" fill="#133053"></path>
                <path d="M100.98475,80.5967201 C100.589277,80.5967201 100.252537,80.2913049 100.225128,79.8840847 C99.9118817,75.4908046 98.9799738,71.1719205 97.4568134,67.0566465 C97.3080214,66.6572574 97.507716,66.2187126 97.9031895,66.0738361 C98.298663,65.9289597 98.7411235,66.1325698 98.8820843,66.5241277 C100.460063,70.776447 101.423295,75.2362919 101.748288,79.778364 C101.775698,80.197331 101.458536,80.5653955 101.039569,80.5928045 C101.019991,80.5967201 101.004328,80.5967201 100.98475,80.5967201" id="Fill-36" fill="#133053"></path>
            </g>
        </g>
    </g>
</svg>