<?xml version="1.0" encoding="UTF-8"?>
<svg width="572px" height="512px" viewBox="0 0 572 512" version="1.1" xmlns="http://www.w3.org/2000/svg" xmlns:xlink="http://www.w3.org/1999/xlink">
    <title>4366C937-1F08-480F-BF14-462C7B86CAF2</title>
    <g id="Page-1" stroke="none" stroke-width="1" fill="none" fill-rule="evenodd">
        <g id="3" transform="translate(-849.000000, -150.000000)" fill="#FCCCA8">
            <g id="Group-6" transform="translate(1135.000000, 406.000000) rotate(-345.000000) translate(-1135.000000, -406.000000) translate(893.000000, 206.000000)">
                <path d="M236.539299,90.1942491 C278.509359,111.325984 333,87.7859839 333,87.7859839 C333,87.7859839 319.422848,29.955932 277.460701,8.80835344 C235.478769,-12.3313032 181,11.2205796 181,11.2205796 C181,11.2205796 194.573195,69.0506315 236.539299,90.1942491" id="Fill-8"></path>
                <path d="M482.766733,77.007768 C482.766733,77.007768 423.310001,75.5864516 392.235303,111.195219 C361.168536,146.815963 370.230007,205.992232 370.230007,205.992232 C370.230007,205.992232 429.686739,207.413548 460.765403,171.804781 C491.840101,136.180045 482.766733,77.007768 482.766733,77.007768" id="Fill-10"></path>
                <path d="M245,163.454444 C245,163.454444 272.184638,179.944675 295.939439,171.68355 C319.67836,163.43043 331,133.559897 331,133.559897 C331,133.559897 303.815362,117.053656 280.068501,125.314781 C256.325609,133.567902 245,163.454444 245,163.454444" id="Fill-12"></path>
                <path d="M414.317307,55.3807635 C424.358069,32.4664341 410.684547,4 410.684547,4 C410.684547,4 380.714275,12.6811123 370.681309,35.6073391 C360.640546,58.5216685 374.321864,87 374.321864,87 C374.321864,87 404.272647,78.3109561 414.317307,55.3807635" id="Fill-14"></path>
                <path d="M114.60233,352.575626 C39.33709,365.260132 14.7109712,353.177388 12.1955068,345.014014 C10.371497,339.083493 18.1404275,330.646951 30.6621155,324.961885 C39.6510263,320.884157 52.3078261,317.79221 67.1264153,317.79221 C89.6543267,317.79221 117.161507,324.94209 144.279247,346.625311 C134.118042,349.004645 124.167453,350.96433 114.60233,352.575626 M331.146862,14.8170129 C328.305539,16.4718579 327.351809,20.1101415 329.012889,22.9407974 C353.980762,65.4323077 365.938159,143.000197 333.185461,212.887706 C297.90935,288.151482 225.250974,325.052941 158.51765,343.042452 C107.123492,297.411487 52.1806621,302.142444 25.7186119,314.153926 C6.80295505,322.740909 -2.97675744,336.221166 0.802400051,348.497898 C7.37121953,369.816894 49.5579029,375.581139 116.589268,364.286228 C130.21172,361.990032 143.08311,359.286062 155.235227,356.221828 C166.489248,366.986238 177.552523,380.470454 188.031638,397.204975 C189.160219,399.01026 191.103445,400 193.090384,400 C194.167305,400 195.260121,399.710996 196.241669,399.101316 C199.035305,397.363333 199.885714,393.701296 198.141182,390.918147 C188.675406,375.794923 178.724817,363.153966 168.539769,352.650847 C274.185302,322.467741 322.193716,264.405644 343.98646,217.911625 C378.559194,144.144337 365.795099,62.0236437 339.305232,16.9390151 C337.636203,14.1044002 333.980236,13.1582089 331.146862,14.8170129" id="Fill-16"></path>
            </g>
        </g>
    </g>
</svg>