<?xml version="1.0" encoding="UTF-8"?>
<svg width="317px" height="328px" viewBox="0 0 317 328" version="1.1" xmlns="http://www.w3.org/2000/svg" xmlns:xlink="http://www.w3.org/1999/xlink">
    <title>6D9173AA-3255-492F-A0F9-6F62B4030162</title>
    <g id="Page-1" stroke="none" stroke-width="1" fill="none" fill-rule="evenodd">
        <g id="2" transform="translate(-1101.000000, -201.000000)" fill="#4764AE">
            <path d="M1433.24362,223.17305 C1431.45238,222.670501 1429.58228,223.727431 1429.08433,225.528045 C1428.96717,225.951719 1416.88136,268.411491 1377.67233,309.726443 C1374.37824,313.199216 1370.81379,316.728328 1366.98796,320.268708 C1365.93124,307.655399 1340.26129,296.98468 1308.48534,296.207194 C1275.83518,295.398157 1249.09724,305.338715 1248.77504,318.400487 C1248.45059,331.466766 1274.6658,342.709895 1307.31822,343.514425 C1320.76267,343.845702 1333.19997,342.351576 1343.20839,339.572907 C1323.28618,353.734427 1298.42059,366.852539 1267.73291,376.096739 C1267.94245,375.729405 1268.13171,375.350803 1268.29394,374.95868 C1273.27336,362.874963 1252.81716,342.991593 1222.61841,330.556318 C1192.41515,318.112028 1163.89272,317.823569 1158.92231,329.911793 C1153.94514,341.988749 1174.39458,361.872118 1204.6001,374.311901 C1216.52143,379.224714 1228.17464,382.233248 1238.22812,383.344265 C1224.97969,385.90659 1210.81199,387.752275 1195.69796,388.737091 C1191.50263,377.340718 1167.35354,368.017641 1137.9186,367.154519 C1105.27069,366.198999 1078.49219,376.01561 1078.10916,389.079636 C1077.72387,402.141407 1103.88726,413.503977 1136.53743,414.457243 C1166.65507,415.342901 1191.76399,407.05422 1195.77457,395.50911 C1200.17719,395.227412 1204.52124,394.889375 1208.76839,394.465701 C1199.05288,399.894584 1188.2446,408.793987 1178.27448,420.25346 C1156.82915,444.889638 1147.43133,471.826726 1157.28654,480.406119 C1167.13949,488.99002 1192.51654,475.966559 1213.96187,451.325874 C1235.4072,426.682935 1244.80727,399.748101 1234.95206,391.170961 C1234.83039,391.065043 1234.68169,391.004196 1234.55551,390.905039 C1258.11203,386.726894 1278.96253,380.380802 1297.33233,372.678053 C1290.53688,380.074315 1283.78423,389.886419 1278.05226,401.276031 C1263.36408,430.455434 1260.91042,458.877633 1272.58165,464.752726 C1284.25063,470.632326 1305.62386,451.73828 1320.30979,422.554369 C1335.00022,393.37722 1337.44938,364.957275 1325.77814,359.079928 C1325.64972,359.014574 1325.51453,358.969503 1325.38385,358.910909 C1344.15696,348.264979 1359.63373,336.372818 1372.21298,324.64066 C1367.25383,335.212222 1363.80429,350.248133 1363.09455,367.053108 C1361.70887,399.689508 1371.16753,426.60406 1384.22219,427.153934 C1397.2791,427.710569 1408.97962,401.695198 1410.3653,369.049783 C1411.74422,336.415636 1402.28556,309.498831 1389.22865,308.95121 C1388.63833,308.926421 1388.05251,308.973746 1387.4667,309.054875 C1423.91339,268.357405 1435.12048,229.054904 1435.59815,227.333166 C1436.09834,225.532552 1435.04162,223.671092 1433.24362,223.17305" id="Fill-6-Copy" transform="translate(1256.913620, 353.047940) rotate(-197.000000) translate(-1256.913620, -353.047940) "></path>
        </g>
    </g>
</svg>