<?xml version="1.0" encoding="UTF-8"?>
<svg width="435px" height="239px" viewBox="0 0 435 239" version="1.1" xmlns="http://www.w3.org/2000/svg" xmlns:xlink="http://www.w3.org/1999/xlink">
    <title>5BC4DF95-1B22-4417-ABBD-E3A345FA8E50</title>
    <g id="Page-1" stroke="none" stroke-width="1" fill="none" fill-rule="evenodd">
        <g id="1" transform="translate(0.000000, -2276.000000)" fill="#3CB3E6">
            <path d="M228.906733,2471.04418 C230.217318,2469.01354 231.529803,2467.131 232.814417,2465.39465 C236.845621,2466.80927 255.058254,2463.16229 261.731532,2452.34839 C266.614079,2449.03591 271.039282,2445.50192 272.641882,2443.85302 C276.496991,2439.87154 276.802942,2430.31777 274.447816,2427.91624 C272.977605,2426.42055 269.04585,2426.41034 265.356702,2427.57472 C266.971971,2422.65101 264.015079,2416.39248 261.810079,2414.92232 C259.831216,2413.60282 254.032083,2413.73049 250.235251,2416.45695 C249.384543,2413.50068 247.891527,2411.06915 246.273725,2410.54952 C243.079293,2409.52303 234.778077,2414.15692 233.022818,2419.42535 C232.29563,2421.60153 231.196614,2427.1285 230.493497,2432.97975 L230.489063,2432.9357 C225.989114,2440.34265 227.679762,2454.01452 230.081762,2460.99632 C228.425319,2463.16229 226.707433,2465.57212 224.985747,2468.22963 C220.350875,2475.38506 215.220654,2485.1495 211.590416,2497.27013 L211.590416,2400.13523 C217.433889,2399.54028 233.151406,2396.54443 243.428951,2381.45667 C265.701293,2348.75642 260.946068,2307.77786 256.612713,2304.79797 C252.279992,2301.81808 233.318001,2326.40726 220.980513,2349.86335 C216.163844,2359.02516 213.293733,2367.96483 211.590416,2375.71522 L211.590416,2312.01852 C217.433889,2311.42356 233.151406,2308.42771 243.428951,2293.34059 C265.701293,2260.63332 260.946068,2219.6605 256.612713,2216.67487 C252.279992,2213.69498 233.318001,2238.28353 220.980513,2261.75302 C216.163844,2270.91228 213.293733,2279.85066 211.590416,2287.59978 L211.590416,2243.5877 C215.793282,2240.42588 224.035588,2232.43099 224.035588,2218.34164 C224.035588,2192.26634 214.13494,2150.75155 209.184615,2150.75155 C204.237458,2150.75155 194.334276,2192.26634 194.334276,2218.34164 C194.334276,2232.43163 202.577215,2240.42652 206.780082,2243.58834 L206.780082,2271.04378 C205.076765,2263.29275 202.206653,2254.35181 197.389985,2245.18872 C185.057564,2221.72561 166.086705,2197.13643 161.757151,2200.11568 C157.423796,2203.09557 152.667937,2244.07541 174.94408,2276.77502 C185.224159,2291.86597 200.939776,2294.85926 206.780082,2295.45422 L206.780082,2359.15986 C205.076765,2351.40692 202.206653,2342.46661 197.389985,2333.30544 C185.057564,2309.84233 166.086705,2285.25953 161.757151,2288.23304 C157.423796,2291.21292 152.667937,2332.19213 174.94408,2364.89812 C185.224159,2379.98907 200.939776,2382.98236 206.780082,2383.57732 L206.780082,2484.40133 C203.14921,2472.28006 198.020256,2462.51563 193.385384,2455.36019 C191.664331,2452.70268 189.946445,2450.29221 188.289369,2448.1256 C190.692003,2441.14636 192.379484,2427.47832 187.881435,2420.07265 L187.877634,2420.10393 C187.174517,2414.25587 186.074867,2408.73337 185.350213,2406.55591 C183.594321,2401.28684 175.289304,2396.65934 172.092339,2397.67944 C170.475169,2398.19971 168.983421,2400.63252 168.132713,2403.59006 C164.334614,2400.86042 158.535481,2400.73274 156.556618,2402.05224 C154.351618,2403.5224 151.40106,2409.77774 153.007461,2414.70528 C149.320847,2413.54345 145.394793,2413.5543 143.924582,2415.05319 C141.567556,2417.44769 141.869073,2427.00849 145.730516,2430.98295 C147.332482,2432.63312 151.759586,2436.16902 156.644666,2439.48278 C163.320478,2450.29477 181.53121,2453.94047 185.556714,2452.52457 C186.841328,2454.26093 188.153813,2456.14347 189.464398,2458.1741 C197.364014,2470.41922 206.780082,2490.65348 206.780082,2517.51333 L206.780082,2573.23876 C205.076765,2565.48773 202.206653,2556.54679 197.389985,2547.3837 C185.057564,2523.92634 166.086705,2499.33141 161.757151,2502.3113 C157.423796,2505.29055 152.667937,2546.26976 174.94408,2578.97064 C185.224159,2594.06095 200.939776,2597.05425 206.780082,2597.6492 L206.780082,2656.45667 L211.590416,2656.45667 L211.590416,2614.21414 C217.433889,2613.6179 233.151406,2610.62461 243.428951,2595.54068 C265.701293,2562.83469 260.946068,2521.85548 256.612713,2518.8756 C252.279992,2515.89571 233.318001,2540.48553 220.980513,2563.948 C216.163844,2573.10662 213.293733,2582.04501 211.590416,2589.7954 L211.590416,2530.37766 C211.590416,2503.521 221.007117,2483.28738 228.906733,2471.04418" id="Fill-17" transform="translate(209.184839, 2403.604109) scale(-1, 1) rotate(-423.000000) translate(-209.184839, -2403.604109) "></path>
        </g>
    </g>
</svg>