<?xml version="1.0" encoding="UTF-8"?>
<svg width="96px" height="27px" viewBox="0 0 96 27" version="1.1" xmlns="http://www.w3.org/2000/svg" xmlns:xlink="http://www.w3.org/1999/xlink">
    <title>B11C57C8-DB70-47E1-9567-E7B04D19429F</title>
    <g id="Page-1" stroke="none" stroke-width="1" fill="none" fill-rule="evenodd">
        <g id="1" transform="translate(-135.000000, -972.000000)" fill="#4764AE">
            <g id="Group-6-Copy-7" transform="translate(182.522727, 985.500000) rotate(-270.000000) translate(-182.522727, -985.500000) translate(170.000000, 938.000000)">
                <path d="M8.63636364,12.0921712 C8.63636364,18.7694357 12.9545455,24.1818182 12.9545455,24.1818182 C12.9545455,24.1818182 17.2727273,18.7694357 17.2727273,12.0921712 C17.2727273,5.41371101 12.9545455,0 12.9545455,0 C12.9545455,0 8.63636364,5.41371101 8.63636364,12.0921712" id="Fill-1"></path>
                <path d="M2.21260649,29.8510589 C5.42409578,35.5752487 11.8595965,38 11.8595965,38 C11.8595965,38 13.0892237,31.1445478 9.87837991,25.420358 C6.667407,19.6974785 0.231260766,17.2727273 0.231260766,17.2727273 C0.231260766,17.2727273 -0.998237323,24.126738 2.21260649,29.8510589" id="Fill-3"></path>
                <path d="M22.8323465,34.1706026 C19.6221684,39.8934459 13.1860628,42.3181818 13.1860628,42.3181818 C13.1860628,42.3181818 11.955798,35.462642 15.167267,29.7386193 C18.377445,24.0157761 24.8141961,21.5909091 24.8141961,21.5909091 C24.8141961,21.5909091 26.0438155,28.4476283 22.8323465,34.1706026" id="Fill-5"></path>
                <path d="M2.21260649,54.0327976 C5.42409578,59.7569512 11.8595965,62.1818182 11.8595965,62.1818182 C11.8595965,62.1818182 13.0892237,55.3262783 9.87837991,49.6019936 C6.667407,43.8792814 0.231260766,41.4545455 0.231260766,41.4545455 C0.231260766,41.4545455 -0.998237323,48.3099543 2.21260649,54.0327976" id="Fill-7"></path>
                <path d="M22.8323465,56.6237862 C19.6221684,62.347976 13.1860628,64.7727273 13.1860628,64.7727273 C13.1860628,64.7727273 11.955798,57.9172751 15.167267,52.1942646 C18.377445,46.4702058 24.8141961,44.0454545 24.8141961,44.0454545 C24.8141961,44.0454545 26.0438155,50.9022171 22.8323465,56.6237862" id="Fill-9"></path>
                <path d="M2.21260649,76.4879892 C5.42409578,82.211781 11.8595965,84.6363636 11.8595965,84.6363636 C11.8595965,84.6363636 13.0892237,77.7812572 9.87837991,72.0574654 C6.667407,66.3349839 0.231260766,63.9090909 0.231260766,63.9090909 C0.231260766,63.9090909 -0.998237323,70.7653767 2.21260649,76.4879892" id="Fill-11"></path>
                <path d="M22.8323465,79.9418885 C19.6221684,85.6660421 13.1860628,88.0909091 13.1860628,88.0909091 C13.1860628,88.0909091 11.955798,81.2353692 15.167267,75.512526 C18.377445,69.7883723 24.8141961,67.3636364 24.8141961,67.3636364 C24.8141961,67.3636364 26.0438155,74.2190452 22.8323465,79.9418885" id="Fill-13"></path>
                <polygon id="Stroke-15" fill-rule="nonzero" points="13.8181818 22.4545455 13.8181818 95 12.0909091 95 12.0909091 22.4545455"></polygon>
            </g>
        </g>
    </g>
</svg>