<?xml version="1.0" encoding="UTF-8"?>
<svg width="505px" height="452px" viewBox="0 0 505 452" version="1.1" xmlns="http://www.w3.org/2000/svg" xmlns:xlink="http://www.w3.org/1999/xlink">
    <title>42D4D774-908D-407D-9B77-11B0DFA05BB8</title>
    <g id="Page-1" stroke="none" stroke-width="1" fill="none" fill-rule="evenodd">
        <g id="1" transform="translate(-881.000000, -186.000000)" fill="#69C8CA">
            <g id="Group-5" transform="translate(1133.500000, 412.000000) rotate(-8.000000) translate(-1133.500000, -412.000000) translate(907.000000, 216.000000)">
                <g id="Group-4" transform="translate(-0.000000, -0.000000)">
                    <path d="M286.882471,168.273834 C311.612195,144.390177 339.220116,115.627965 359.95953,85.2015518 C360.552475,84.3329557 360.296534,83.1623581 359.421234,82.5820775 C359.410304,82.5747783 359.399374,82.5674792 359.389355,82.5610925 C358.551399,82.0008844 357.439286,82.2089096 356.862735,83.0355358 C337.740941,110.462007 312.761652,136.738866 291.537681,158.710152 C262.336732,188.938576 226.862954,213.771121 191.871,236.774321 C132.336951,275.908593 68.2797604,308.159788 1.43454442,332.75511 C0.711351869,333.020616 0.18671848,333.698522 0.199469986,334.470405 C0.212221492,335.297031 0.153018072,336.126395 0,336.947547 C27.3401396,326.996099 54.2312441,315.794675 80.5430659,303.319554 C117.70733,285.696723 153.711207,265.636896 188.241375,243.275106 C222.709606,220.95255 257.270741,196.870903 286.882471,168.273834" id="Fill-1"></path>
                    <path d="M231.598123,128.25184 C225.792148,167.856056 211.306035,205.473802 189.053002,238.765905 C187.804877,240.632675 190.735774,242.538735 191.988473,240.665569 C214.583734,206.860859 229.195209,168.663802 235.088113,128.456518 C235.414785,126.230648 231.922049,126.040591 231.598123,128.25184" id="Fill-3"></path>
                    <path d="M119.723602,208.511773 C117.750592,224.797446 113.510067,240.320269 107.214323,255.423433 C101.143523,269.989507 94.9841916,284.785892 85.1363074,297.21999 C83.7532131,298.965989 86.6558139,300.852177 88.0334879,299.112551 C98.0530168,286.463617 104.314432,271.314026 110.497252,256.502166 C116.909533,241.14138 121.16632,225.25807 123.169142,208.715685 C123.439256,206.489036 119.99191,206.295137 119.723602,208.511773" id="Fill-5"></path>
                    <path d="M160.174377,260.767681 C186.829224,261.932892 212.628373,269.751078 236.01229,284.213072 C238.27566,285.613892 240.381713,282.259443 238.100156,280.848539 C214.130618,266.022588 187.622176,257.886284 160.288046,256.692653 C157.700038,256.579891 157.575457,260.654002 160.174377,260.767681" id="Fill-7"></path>
                    <path d="M238.242299,208.091494 C258.166998,198.575457 279.783135,195.31808 301.572475,198.24106 C303.776307,198.535845 303.964846,195.020531 301.774546,194.726667 C279.42049,191.727227 257.146722,195.176214 236.718651,204.932685 C234.70426,205.894422 236.233321,209.050467 238.242299,208.091494" id="Fill-9"></path>
                    <path d="M41.7860862,320.118323 C64.8047039,318.385523 87.4093766,323.658045 107.860442,334.084677 C109.833518,335.090732 111.754624,332.205443 109.756018,331.18583 C88.4004737,320.297298 65.1238244,314.922633 41.1013448,316.730459 C38.8665895,316.898586 39.5768606,320.284643 41.7860862,320.118323" id="Fill-11"></path>
                    <path d="M148.200244,231.226868 C161.899358,210.115594 163.303837,182.489371 155.611865,158.513594 C151.522726,145.771147 142.25752,132.333723 134.220779,121.462436 C134.040229,121.218648 133.853328,120.957577 133.673685,120.717428 C133.4514,120.963945 133.232744,121.207732 133.011367,121.454249 C120.753931,135.080881 109.125244,148.062568 99.1360234,163.188311 C95.2573751,169.061954 91.3678394,175.038387 89.13773,181.718894 C85.0240946,194.041081 86.9321174,207.51762 89.7029693,220.211855 C93.1370474,235.937062 97.8739884,251.369359 103.774978,266.340461 C103.900183,266.65975 104.009057,266.985407 104.136077,267.302876 C104.384674,267.18826 104.62329,267.052721 104.871886,266.936286 C114.065417,262.632708 122.732722,257.204796 130.522681,250.687118 C137.266539,245.043618 143.41068,238.608719 148.200244,231.226868" id="Fill-13"></path>
                    <path d="M419.116698,1.03676374 C419.038161,0.693603135 418.991586,0.341340125 418.90757,0 C418.750495,0.0291276907 418.594334,0.0628065831 418.436347,0.0919342738 C394.414924,4.50933062 370.844633,14.1351221 351.416723,29.7430132 C327.242792,49.1657214 318.62927,69.8682276 310.690621,97.8526564 C305.762869,115.217311 305.362877,125.699639 306.506232,144.407809 C306.524497,144.695444 306.540022,144.967606 306.557373,145.258883 C307.063299,145.085027 307.538175,144.917543 308.039534,144.744597 C346.289888,131.519716 369.961546,122.002243 388.481713,101.057613 C413.247412,73.0486073 426.653529,33.8054158 419.116698,1.03676374" id="Fill-15"></path>
                    <path d="M257.450097,138.211867 C268.076046,103.933253 264.73089,67.6860657 257.737628,32.7382273 C257.633319,32.2172149 257.537173,31.694384 257.431049,31.1742809 C257.189777,31.3261292 256.957575,31.4925258 256.716303,31.6452834 C238.708879,43.1357434 222.50646,57.3312853 210.145347,74.701093 C192.13883,100.005201 182.963234,132.53256 189.56647,162.954046 C192.986003,178.708988 200.332103,193.138212 208.779348,206.974592 C208.90724,207.183725 209.02969,207.398313 209.15849,207.607445 C209.503164,207.33921 209.833326,207.056427 210.174372,206.785464 C232.361427,189.201068 249.166119,164.935348 257.450097,138.211867" id="Fill-17"></path>
                    <path d="M160.966581,322.453853 C133.660646,310.779569 101.581208,308.66768 74.1504221,319.357693 C73.7202782,319.525695 73.2791984,319.668131 72.8508772,319.842524 C72.895532,320.036091 72.9611471,320.22418 73.0076245,320.416834 C76.7021231,335.669369 84.8037738,349.874633 96.421304,360.422211 C102.505288,365.94435 109.425866,370.481306 116.642623,374.401951 C152.202399,393.723046 195.632351,396.963468 234.166681,384.965964 C234.259636,384.937659 234.354414,384.91392 234.447368,384.885615 C233.893285,384.11226 233.320063,383.353514 232.755955,382.58655 C213.995485,357.025657 190.008584,334.871361 160.966581,322.453853" id="Fill-19"></path>
                    <path d="M306.682342,235.583389 C326.202056,250.928882 350.576637,260.993408 375.334904,259.929886 C403.247421,258.731707 427.675772,244.234466 452.318296,230.013869 C452.545227,229.882875 452.772158,229.751882 453,229.620888 C452.632718,229.187601 452.243563,228.773551 451.872636,228.343929 C438.496464,212.829884 422.689669,199.433723 405.174968,188.872704 C392.301872,181.111101 378.347892,174.806917 363.537224,172.343687 C331.655692,167.039819 300.229845,179.830478 271.665699,196.068194 C271.402313,196.218424 271.135281,196.363158 270.872807,196.513389 C271.065106,196.788201 271.26743,197.055684 271.46064,197.330496 C281.518516,211.613384 293.004507,224.831833 306.682342,235.583389" id="Fill-21"></path>
                    <path d="M356.544159,326.948491 C321.858445,277.633099 259.684706,248.982743 199.930182,255.659744 C198.280428,255.844556 187.84955,258.498705 183.652489,259.544445 C182.954795,259.718278 182.409722,259.85277 182.127193,259.918643 C182.284356,260.156519 182.460596,260.40263 182.620484,260.641421 C195.408802,279.759346 217.473353,303.104149 237.783677,318.151647 C261.636067,335.820358 291.423392,348.409497 320.534827,342.960303 C333.427617,340.546775 345.28477,334.792916 357.062886,328.764584 C357.251845,328.667604 357.441712,328.572454 357.631579,328.475473 C357.27819,327.959465 356.903907,327.46084 356.544159,326.948491" id="Fill-23"></path>
                </g>
            </g>
        </g>
    </g>
</svg>