<?xml version="1.0" encoding="UTF-8"?>
<svg width="270px" height="178px" viewBox="0 0 270 178" version="1.1" xmlns="http://www.w3.org/2000/svg" xmlns:xlink="http://www.w3.org/1999/xlink">
    <title>7AD2494B-0EDD-4E74-BA57-55207400C64F</title>
    <g id="Page-1" stroke="none" stroke-width="1" fill="none" fill-rule="evenodd">
        <g id="1" transform="translate(-758.000000, -1197.000000)" fill="#4764AE">
            <path d="M772.52442,1303.11239 C780.560433,1302.34326 788.848527,1303.35449 796.864412,1304.33221 C803.910067,1305.19153 810.565475,1306.00444 816.994438,1305.68709 C820.372479,1305.55247 823.643904,1305.08296 826.989356,1304.25288 C829.465362,1303.67931 831.885212,1302.90247 834.20402,1301.93867 C832.969284,1303.24066 831.735894,1304.55549 830.523107,1305.86283 L829.276658,1307.21615 L827.029547,1309.85176 L827.220108,1309.27928 L825.783058,1311.19467 C824.996906,1312.24235 824.056679,1313.26399 822.98237,1314.23898 C821.991144,1315.18126 820.891845,1316.04078 819.712325,1316.79451 C818.537454,1317.54612 817.261229,1318.20712 815.922445,1318.7559 C814.623655,1319.27264 813.215206,1319.80176 811.717236,1320.16639 C809.13753,1320.81556 806.413231,1321.11824 803.529128,1321.43861 L802.810394,1321.5187 C800.128835,1321.85291 796.791774,1322.26922 793.734394,1323.14203 C792.543762,1323.48449 791.434887,1323.87179 790.435264,1324.29477 C789.415481,1324.74132 788.393327,1325.25455 787.398404,1325.82078 C785.52735,1326.88589 783.664762,1328.18578 781.857058,1329.68773 C780.326923,1331.00464 778.821394,1332.52171 777.11819,1334.46138 C776.409517,1335.27345 775.688098,1336.14431 774.973323,1337.04941 C774.368599,1337.81285 773.812143,1338.61957 773.274038,1339.40004 L773.01508,1339.77453 C771.655256,1341.76807 770.369295,1343.80765 769.399303,1345.36621 C768.736623,1346.45315 768.10142,1347.55718 767.465948,1348.66047 C766.996212,1349.47648 766.525975,1350.29226 766.048037,1351.09834 C765.589039,1351.85464 765.135831,1352.61424 764.682623,1353.37384 C762.910065,1356.34554 761.076611,1359.41769 758.932744,1362.23029 L757.930961,1363.54381 L759.414401,1362.81456 C762.213583,1361.43786 765.39363,1360.19845 769.133953,1359.02612 C772.131087,1358.10689 775.251197,1357.35248 778.268647,1356.62165 L784.437786,1355.13159 C786.370484,1354.67474 787.959027,1354.27051 789.436663,1353.86037 C792.828352,1352.91934 795.877287,1351.8484 798.760373,1350.58532 C800.540417,1349.78615 802.242872,1348.85981 803.824527,1347.82951 C804.595198,1347.31565 805.367775,1346.79901 806.119196,1346.2609 C806.865598,1345.72046 807.596491,1345.14774 808.290273,1344.55894 C809.570268,1343.47835 810.837756,1342.23194 812.160475,1340.75176 C813.371961,1339.45114 814.521583,1338.02763 815.58183,1336.51665 C817.951926,1333.02364 819.677525,1329.95737 821.014628,1326.86322 L821.403944,1325.94315 C822.00254,1324.53627 822.621312,1323.07956 823.15733,1321.58671 C823.792765,1319.84527 824.381938,1317.9986 824.90795,1316.09867 C830.493084,1309.23368 835.713837,1303.53671 840.863354,1298.68709 C841.750688,1298.18121 842.612435,1297.62799 843.453567,1297.06394 C842.534156,1298.32794 841.670891,1299.60652 840.847209,1300.83821 C840.199221,1301.82025 839.571746,1302.80941 838.977618,1303.78604 C838.439004,1304.72748 837.892368,1305.73724 837.30469,1306.87564 C836.033536,1309.35264 834.453339,1312.66013 833.511715,1316.28615 C832.484361,1320.10913 832.08416,1323.42461 832.251945,1326.71854 C832.329687,1328.54645 832.565812,1330.50255 832.951659,1332.53336 C833.349164,1334.59159 833.826978,1336.50774 834.411897,1338.39078 C835.599332,1342.27377 837.090683,1346.11833 838.641765,1350.04448 L840.893544,1355.72202 C841.73388,1357.87378 842.376867,1359.62574 842.916362,1361.23662 C843.566084,1363.17858 844.059844,1364.90065 844.426741,1366.50555 C844.876562,1368.37689 845.155099,1370.02974 845.276627,1371.5593 L845.553978,1375.02584 L846.049787,1371.58397 C846.159208,1370.81855 846.303237,1370.02347 846.476268,1369.21993 C846.657566,1368.3659 846.851876,1367.62419 847.073022,1366.94812 C847.488132,1365.62544 847.991985,1364.22385 848.658769,1362.54099 L849.541619,1360.36595 L850.518736,1358.2312 C851.142981,1356.86498 851.806105,1355.39049 852.426278,1353.86787 L853.587818,1351.01917 C853.97028,1350.04827 854.333092,1349.0566 854.666098,1348.07118 C855.008125,1347.0625 855.328458,1346.03087 855.617253,1345.01446 C855.989811,1343.81055 856.27444,1342.82273 856.511739,1341.90627 C857.026316,1339.96008 857.47386,1337.8025 857.879628,1335.31645 C858.282313,1333.05062 858.571431,1330.69154 858.737185,1328.30607 C858.810111,1327.25983 858.854146,1326.18119 858.867338,1325.1071 C858.898276,1324.05655 858.902872,1322.98516 858.879237,1321.92321 C858.835593,1319.87672 858.697752,1317.73867 858.455409,1315.38701 C858.006007,1311.24363 857.370247,1306.84725 856.45321,1301.5509 C855.38082,1295.52749 857.030774,1289.57909 858.626912,1283.82604 L858.702829,1283.55184 L864.918801,1279.12013 C865.590834,1278.64088 866.308451,1278.13464 867.043121,1277.67177 L873.568485,1273.47166 C874.038217,1273.16676 874.52275,1272.88647 875.007517,1272.60568 C875.245268,1272.46801 875.483488,1272.32933 875.719699,1272.18972 C878.714147,1271.54098 881.564999,1270.53706 884.113376,1269.51604 C883.839153,1269.75945 883.565734,1270.00506 883.293855,1270.25261 C882.420991,1271.07605 881.574553,1271.95028 880.825946,1272.7248 C879.413368,1274.20766 877.76022,1275.98626 876.205798,1277.93974 C873.745154,1281.16826 872.064026,1283.79055 870.751223,1286.44598 C869.155873,1289.8148 868.132643,1293.07852 867.622429,1296.4294 C867.158609,1299.88131 867.179533,1303.76015 867.685932,1308.28979 C867.794957,1309.25905 867.926893,1310.27746 868.080288,1311.31932 C868.240632,1312.34365 868.415361,1313.36858 868.60143,1314.39148 C868.952696,1316.32739 869.33415,1318.22608 869.798312,1320.4821 L869.987968,1321.40164 C870.761083,1325.14699 871.492058,1328.68523 872.05095,1332.1823 C872.365403,1334.21157 872.56496,1335.99186 872.660889,1337.62612 C872.760332,1339.26202 872.746774,1340.91483 872.617626,1342.67924 L872.358817,1346.24323 L873.378842,1342.81864 C873.829771,1341.30382 874.459325,1339.97733 875.173415,1338.52721 C875.790884,1337.30133 876.507312,1336.01657 877.41751,1334.49974 L882.58152,1326.78437 C883.716197,1325.08887 884.781178,1323.31874 885.745012,1321.52831 C886.757597,1319.691 887.741089,1317.87676 888.627931,1315.89105 C889.077292,1314.90249 889.508835,1313.87875 889.908765,1312.8586 C890.350702,1311.8165 890.762828,1310.7715 891.133119,1309.75462 C891.893913,1307.67227 892.586554,1305.40975 893.189673,1303.03649 C894.205494,1299.34308 894.870713,1295.31643 895.283211,1290.36526 C895.676026,1286.19936 895.829696,1281.78883 895.940337,1276.44837 C895.9579,1275.64012 896.015755,1274.85554 896.110841,1274.11824 C896.211179,1273.38279 896.350411,1272.62028 896.527376,1271.85155 C896.850366,1270.44072 897.29678,1268.9867 897.891863,1267.40781 C898.382661,1266.1076 898.985871,1264.69737 899.73761,1263.09444 C900.207867,1262.08204 900.722375,1261.11103 901.219707,1260.17293 C901.401269,1259.83075 901.58116,1259.49084 901.759276,1259.1495 C902.200405,1258.90331 902.620451,1258.6473 902.959616,1258.41403 L906.331856,1256.99311 C906.975371,1256.71918 907.639724,1256.43725 908.310458,1256.19799 L916.083664,1253.26917 L924.017175,1250.60991 C924.790027,1250.33644 925.59639,1250.10119 926.37693,1249.87283 L929.310163,1249.00808 C930.697809,1248.89183 932.101509,1248.71101 933.482492,1248.47014 L934.311257,1248.32839 C934.500895,1248.29652 934.692272,1248.26485 934.884352,1248.23168 C934.510238,1248.4285 934.137232,1248.62951 933.768879,1248.83757 C932.57193,1249.53431 931.401585,1250.24346 930.289982,1250.94458 C929.126275,1251.67881 927.988573,1252.43066 926.906002,1253.1783 L926.067293,1253.7673 L925.260487,1254.3901 C924.72331,1254.8095 924.191756,1255.23518 923.664624,1255.66842 C921.217331,1257.69407 918.656628,1259.95507 916.507804,1262.75864 C915.414866,1264.14446 914.434025,1265.57033 913.592224,1266.99815 C913.182308,1267.70161 912.749343,1268.4676 912.355935,1269.31126 C911.978704,1270.13072 911.630559,1270.97168 911.321522,1271.81133 C910.093169,1275.1742 909.288127,1278.94635 908.860855,1283.34471 C908.478006,1287.50364 908.421573,1291.7122 908.395068,1295.66786 L908.375305,1301.72425 C908.365279,1304.04311 908.323967,1305.89305 908.243499,1307.5452 C908.143478,1309.57478 907.985421,1311.33303 907.756811,1312.92282 C907.485661,1314.88298 907.160278,1316.4942 906.762918,1317.84958 L905.775112,1321.2208 L907.476486,1318.14752 C909.81003,1313.93216 913.017538,1310.84368 916.413528,1307.57379 C917.416516,1306.6089 918.452773,1305.61067 919.456197,1304.58981 L919.640828,1304.40355 C920.954072,1303.0826 922.312654,1301.71684 923.592542,1300.21974 C924.274803,1299.4381 924.947433,1298.60373 925.573491,1297.82336 C926.242297,1297.02994 926.904926,1296.20129 927.541922,1295.35946 C928.891708,1293.59451 930.177872,1291.61608 931.255942,1289.91617 C932.479927,1288.01867 933.642979,1285.98711 934.710273,1283.87915 C938.495398,1276.56134 940.696064,1268.44118 943.182393,1258.58136 C944.627566,1252.62785 948.560387,1247.88564 952.364732,1243.29969 L952.482679,1243.15684 C962.455109,1241.0789 973.081703,1239.43545 984.121907,1238.26272 C983.623494,1238.43517 983.132543,1238.60866 982.650324,1238.78438 C981.103592,1239.34794 979.459236,1239.9649 977.85814,1240.75775 C976.218762,1241.53703 974.749229,1242.30329 973.364453,1243.09748 C972.619157,1243.52547 971.889125,1243.96791 971.1973,1244.41228 C970.495173,1244.8604 969.813395,1245.38152 969.099114,1245.92779 C967.690391,1247.02102 966.382607,1248.18086 965.210536,1249.37467 C963.752135,1250.87585 962.70329,1252.14484 961.812561,1253.48755 C959.848665,1256.38468 958.147862,1259.86432 956.613083,1264.12545 C955.278923,1267.90918 954.230427,1271.90855 953.185908,1276.01603 L951.700969,1281.87528 C951.133781,1284.13218 950.646984,1285.92705 950.168637,1287.52557 C949.046486,1291.31595 947.760678,1294.48225 946.240461,1297.20767 L944.639,1300.07718 L946.866132,1297.66003 C947.37727,1297.10514 947.93116,1296.54637 948.503195,1296.00767 C949.017403,1295.55497 949.575835,1295.09785 950.261857,1294.56894 C951.329731,1293.74667 952.513019,1292.9141 953.9813,1291.95001 L954.929359,1291.3375 L957.886328,1289.63684 C959.068537,1288.96253 960.332598,1288.21098 961.855228,1287.27712 C964.853507,1285.56519 967.976071,1283.39277 971.988162,1280.22881 C974.906155,1277.78086 978.347244,1274.74451 981.750329,1270.78972 L981.929324,1270.57886 C982.55534,1269.84182 983.166211,1269.12154 983.765697,1268.38374 C984.405999,1267.58986 985.053297,1266.74429 985.68897,1265.87253 C986.888177,1264.22605 988.074595,1262.44843 989.317415,1260.43453 L991.057317,1257.57217 C991.633956,1256.60816 992.20707,1255.62418 992.780573,1254.6184 C993.990712,1252.49766 995.214934,1250.25891 996.252568,1248.35085 C997.008148,1246.9677 997.894722,1245.67191 998.88481,1244.5001 C999.82382,1243.39851 1000.89251,1242.31893 1002.15064,1241.20005 C1003.19233,1240.27275 1004.384,1239.30424 1005.79495,1238.2377 C1006.41934,1237.76493 1007.04726,1237.30297 1007.66488,1236.85391 L1009.46548,1235.62405 C1011.05978,1235.34769 1012.53854,1235.02296 1013.9842,1234.63027 C1014.96094,1234.36516 1015.9522,1234.06102 1016.92138,1233.76491 L1017.14175,1233.6973 C1020.59801,1232.76195 1023.70718,1232.01527 1026.76356,1232.35291 L1027.14253,1232.39467 L1027.45038,1230.03211 L1027.05529,1229.98954 C1023.55249,1229.608 1020.02787,1230.47239 1016.70773,1231.39366 L1016.50995,1231.45349 C1015.53949,1231.74839 1014.54642,1232.04985 1013.57775,1232.31078 C1012.35506,1232.64074 1011.06657,1232.92963 1009.74608,1233.17183 C1009.14734,1233.00378 1008.53861,1232.80602 1007.92883,1232.57908 C1007.40933,1232.40095 1006.72879,1232.15933 1006.05162,1231.86982 C1004.82429,1231.35002 1003.59686,1230.70988 1002.40258,1229.96978 C1001.21762,1229.23464 1000.04208,1228.38359 998.909616,1227.4415 C997.550252,1226.31237 996.537832,1225.38412 995.62603,1224.43011 C993.646775,1222.37624 991.871679,1220.06279 989.990787,1217.6145 L989.201355,1216.5881 C988.780942,1216.04155 988.356212,1215.49115 987.927779,1214.95917 C987.408654,1214.31895 986.882238,1213.68388 986.344487,1213.06002 C985.14204,1211.66516 984.026235,1210.49206 982.932603,1209.47586 C981.147583,1207.81667 979.130738,1206.30341 976.931972,1204.97584 C976.248926,1204.58099 975.547825,1204.20521 974.822378,1203.84495 C973.405886,1203.14107 971.899367,1202.49658 970.269994,1201.898 C965.318296,1200.01584 960.211624,1199.26805 955.864903,1198.78426 L954.029654,1198.59835 C953.513019,1198.55957 952.99696,1198.53265 952.479897,1198.50527 L952.201777,1198.491 C950.985083,1198.42804 949.764583,1198.3798 948.540272,1198.33711 L944.18733,1198.20215 C943.196743,1198.17196 942.172935,1198.14094 941.174076,1198.15208 C936.525946,1198.16526 931.557299,1197.97464 926.404734,1197.58344 L924.648236,1197.45014 L926.186461,1198.30971 C927.761164,1199.18934 929.383349,1200.20042 931.009073,1201.31268 C932.359524,1202.24468 933.820174,1203.34531 935.606332,1204.77665 C938.651158,1207.22542 941.556868,1209.83099 944.271197,1212.2887 C945.128936,1213.07033 945.983132,1213.85824 946.835053,1214.64448 C948.744517,1216.40506 950.718317,1218.22556 952.66055,1219.89883 C954.17525,1221.20725 955.55961,1222.34436 956.895968,1223.37604 L959.046229,1225.00159 C959.788781,1225.55058 960.52911,1226.07289 961.24506,1226.55574 C963.688597,1228.19714 966.223668,1229.60948 968.772395,1230.74484 C971.326687,1231.95608 973.908105,1232.9296 976.451568,1233.64116 C978.914301,1234.29126 981.55622,1234.9437 984.193656,1235.30826 C985.066669,1235.43201 985.956163,1235.53352 986.849423,1235.60992 C975.889321,1236.68688 965.19396,1238.24452 954.974894,1240.25509 L955.214637,1239.97423 L953.247474,1240.5915 L952.554897,1240.72165 L952.384735,1240.7052 C951.226055,1240.58991 950.131244,1240.48181 949.002533,1240.24066 C947.81387,1239.99964 946.598955,1239.66028 945.391516,1239.23281 C944.194048,1238.80754 942.975216,1238.29048 941.789586,1237.68388 C940.362279,1236.96519 939.274636,1236.3542 938.262142,1235.70131 C935.862392,1234.16522 933.597655,1232.32385 931.199872,1230.37465 L928.651548,1228.32106 C928.000855,1227.8149 927.348399,1227.32562 926.685475,1226.84307 C925.209018,1225.7711 923.865757,1224.89314 922.578717,1224.15803 C920.48471,1222.96357 918.205039,1221.96283 915.797163,1221.18198 C913.672822,1220.52175 911.353742,1220.04062 908.706123,1219.711 C907.537792,1219.56923 906.318195,1219.464 905.081627,1219.39911 C904.475037,1219.36845 903.867111,1219.34328 903.248421,1219.33201 C902.647739,1219.33586 902.045322,1219.34868 901.442877,1219.36941 C899.182836,1219.44708 896.823668,1219.64034 894.237548,1219.9586 C892.13209,1220.18834 890.042729,1220.59718 888.021875,1220.99278 L885.191878,1221.55883 C883.49457,1221.90012 881.739859,1222.25312 880.019025,1222.63962 C877.176503,1223.29936 874.990458,1223.76876 872.92842,1224.16225 C872.150479,1224.31427 871.365135,1224.4494 870.579522,1224.5838 C870.160842,1224.65603 869.742127,1224.72703 869.322544,1224.8025 C868.065241,1225.03632 866.884358,1225.22944 865.713094,1225.39407 L863.922862,1225.64501 L865.658468,1226.15206 C867.3838,1226.65493 869.179689,1227.27254 870.99206,1227.98454 C872.649077,1228.66012 874.359676,1229.42787 876.220434,1230.33097 C879.695211,1232.01235 883.100589,1233.89891 886.288783,1235.68115 C887.098494,1236.14116 887.905798,1236.60371 888.712064,1237.06456 C891.147295,1238.45905 893.666091,1239.90105 896.116585,1241.19334 C897.882012,1242.12527 899.475331,1242.91649 900.986965,1243.6116 C902.819854,1244.45652 904.358377,1245.13853 905.907583,1245.72293 C908.670278,1246.78342 911.53878,1247.59342 914.673631,1248.19787 C916.813303,1248.64176 918.972558,1248.93356 921.116133,1249.07027 L915.197325,1251.0575 L907.435158,1253.9823 C906.721544,1254.23881 906.017022,1254.53743 905.335744,1254.82551 L897.792259,1258.01655 C894.021099,1258.22494 889.983827,1257.55325 885.786742,1256.01991 C883.102395,1255.06923 880.482189,1253.78573 877.706341,1252.42844 L877.033771,1252.09894 C875.680399,1251.43793 874.105731,1250.67617 872.537597,1249.98951 C871.047997,1249.32971 869.542599,1248.77062 867.934299,1248.28019 C865.635706,1247.58999 863.201252,1247.12956 860.696753,1246.9137 C859.24661,1246.7944 858.088439,1246.75141 857.05135,1246.7777 C855.892686,1246.80653 854.684439,1246.88797 853.460897,1247.01662 C851.19988,1247.25626 848.802838,1247.6749 846.32791,1248.26057 C844.317297,1248.77575 842.141214,1249.4623 839.484306,1250.41988 C836.169854,1251.57402 832.947553,1253.04164 829.831175,1254.46035 C828.663135,1254.99287 827.491884,1255.52573 826.312095,1256.04545 C825.602826,1256.35162 824.910932,1256.67689 824.219305,1257.00289 C823.83043,1257.18551 823.440585,1257.36889 823.046691,1257.54916 C821.966686,1258.04885 820.876237,1258.53817 819.776211,1259.01264 C818.60665,1259.51698 817.515308,1259.96497 816.444923,1260.38243 L811.455981,1262.28237 L813.154307,1262.42641 C821.377483,1263.12341 829.463581,1265.63852 837.283027,1268.0702 C843.941008,1270.14225 850.230849,1272.09821 856.528201,1272.98964 C857.802372,1273.16916 859.086619,1273.30087 860.345644,1273.38051 C861.613568,1273.45942 862.855431,1273.48281 864.060827,1273.50447 C865.899323,1273.52091 867.732603,1273.42927 869.53103,1273.23283 L864.83307,1276.26749 L859.789469,1279.84811 L859.871804,1279.56407 L858.864494,1280.46222 L857.153606,1281.72903 L855.776548,1282.79367 C851.963582,1283.94618 847.378081,1284.19069 842.511885,1283.50252 C839.657623,1283.07349 836.808246,1282.30111 833.790164,1281.48425 L833.132167,1281.30566 C830.240505,1280.53616 826.874404,1279.68587 823.51782,1279.32365 C821.008576,1279.06161 818.531066,1279.06046 816.148719,1279.32047 C813.875271,1279.58546 811.507478,1280.07636 809.113043,1280.77773 C807.992659,1281.10714 806.84126,1281.48866 805.691792,1281.91321 C804.53366,1282.33799 803.445994,1282.83838 802.390603,1283.32329 C800.362209,1284.27106 798.292847,1285.35912 796.068704,1286.64674 C795.14314,1287.16775 794.253071,1287.74502 793.392231,1288.30416 L793.045634,1288.52847 C792.057347,1289.17351 791.074821,1289.82979 790.090058,1290.4948 C789.56703,1290.8524 789.04002,1291.20937 788.513278,1291.56707 C787.094441,1292.52735 785.62698,1293.52113 784.234642,1294.54384 C781.910319,1296.20487 780.101228,1297.45032 778.371727,1298.58144 L775.357826,1300.52607 C774.315821,1301.19064 773.28517,1301.81776 772.292859,1302.38888 L770.740666,1303.28392 L772.52442,1303.11239 Z" id="Fill-28-Copy"></path>
        </g>
    </g>
</svg>