<?xml version="1.0" encoding="UTF-8"?>
<svg width="16px" height="16px" viewBox="0 0 16 16" version="1.1" xmlns="http://www.w3.org/2000/svg" xmlns:xlink="http://www.w3.org/1999/xlink">
    <title>1EB49F87-4672-4965-A03A-85B687C89BBD</title>
    <defs>
        <path d="M3.67391304,5.33333333 C3.95005542,5.33333333 4.17391304,5.55719096 4.17391304,5.83333333 L4.17391304,15.5 C4.17391304,15.7761424 3.95005542,16 3.67391304,16 L0.5,16 C0.223857625,16 1.85459924e-13,15.7761424 1.84445052e-13,15.5 L1.84445052e-13,5.83333333 C1.84411234e-13,5.55719096 0.223857625,5.33333333 0.5,5.33333333 L3.67391304,5.33333333 Z M11.6787874,4.66799061 L11.8983278,4.66886792 C14.290301,4.66886792 16,6.09893493 16,9.04502927 L16,9.04502927 L16,15.6092713 C16,15.8250648 15.8203149,16 15.5986622,16 L15.5986622,16 L13.1906355,16 C12.9689827,16 12.7892977,15.8250648 12.7892977,15.6092713 L12.7892977,15.6092713 L12.7892977,9.74834092 C12.7892977,8.66937343 11.8908724,7.79469746 10.7826087,7.79469746 C9.67434498,7.79469746 8.77591973,8.66937343 8.77591973,9.74834092 L8.77591973,9.74834092 L8.77591973,15.6092713 C8.77591973,15.8250648 8.59623468,16 8.37458194,16 L8.37458194,16 L5.96655518,16 C5.74490244,16 5.56521739,15.8250648 5.56521739,15.6092713 L5.56521739,15.6092713 L5.56521739,5.4503253 C5.56521739,5.2345318 5.74490244,5.05959661 5.96655518,5.05959661 L5.96655518,5.05959661 L8.37458194,5.05959661 C8.59623468,5.05959661 8.77591973,5.2345318 8.77591973,5.4503253 C8.77535701,5.58435949 8.86055152,5.70456948 8.98946031,5.75163242 C9.1183691,5.79869536 9.26374508,5.76266369 9.35384615,5.6613188 C10.0199242,4.99541943 10.9442466,4.63489627 11.8983278,4.66886792 Z M2.08695652,3.78956126e-14 C3.23955078,3.78956126e-14 4.17391304,0.8954305 4.17391304,2 C4.17391304,3.1045695 3.23955078,4 2.08695652,4 C0.934362261,4 1.84445052e-13,3.1045695 1.84445052e-13,2 C1.84445052e-13,0.8954305 0.934362261,3.78956126e-14 2.08695652,3.78956126e-14 Z" id="path-1"></path>
    </defs>
    <g id="Page-1" stroke="none" stroke-width="1" fill="none" fill-rule="evenodd">
        <g id="1" transform="translate(-384.000000, -4146.000000)">
            <g id="Icon/Insta-Dark-Copy" transform="translate(384.000000, 4146.000000)">
                <mask id="mask-2" fill="white">
                    <use xlink:href="#path-1"></use>
                </mask>
                <use id="Combined-Shape" fill="#3DAAFF" fill-rule="nonzero" xlink:href="#path-1"></use>
            </g>
        </g>
    </g>
</svg>