<?xml version="1.0" encoding="UTF-8"?>
<svg width="447px" height="411px" viewBox="0 0 447 411" version="1.1" xmlns="http://www.w3.org/2000/svg" xmlns:xlink="http://www.w3.org/1999/xlink">
    <title>9743E56C-38A5-4807-9525-8C1F3CAC9EC3</title>
    <defs>
        <polygon id="path-1" points="0 0 325 0 325 374 0 374"></polygon>
    </defs>
    <g id="Page-1" stroke="none" stroke-width="1" fill="none" fill-rule="evenodd">
        <g id="4" transform="translate(-942.000000, -161.000000)">
            <g id="Group-5" transform="translate(1165.500000, 366.362108) rotate(-285.000000) translate(-1165.500000, -366.362108) translate(1003.000000, 179.362108)">
                <mask id="mask-2" fill="white">
                    <use xlink:href="#path-1"></use>
                </mask>
                <g id="Clip-4"></g>
                <path d="M322.887919,367.113468 C322.299093,366.84666 263.303576,339.668293 207.853029,285.237045 C207.4757,284.866879 207.095968,284.477483 206.718639,284.10251 C206.692202,284.006363 206.677781,283.905408 206.644134,283.809261 C203.877856,276.196819 203.351518,268.396889 203.673569,261.806009 C211.359546,261.411806 219.011875,253.284977 223.405235,237.026511 C228.505185,218.186497 218.483134,193.202686 218.483134,193.202686 C218.483134,193.202686 196.569208,209.547685 191.466854,228.382891 C187.099931,244.542807 190.041656,255.510781 196.528351,259.820573 C196.22793,264.123153 196.25677,268.976175 196.932117,274.067162 C195.718415,272.776387 194.504714,271.485613 193.291012,270.161188 C193.050675,268.793496 192.053276,267.714245 190.753053,267.339272 C181.497676,257.022694 172.290367,245.626865 163.566135,233.156592 C163.486824,232.88017 163.385882,232.606151 163.23447,232.34415 C163.073444,232.06292 150.393265,208.716013 171.872181,161.171297 C183.369902,164.074938 198.66735,156.015412 212.102187,134.315023 C227.654392,109.206221 223.056746,68.0865323 223.056746,68.0865323 C223.056746,68.0865323 185.088311,82.8402969 169.536105,107.953906 C154.625599,132.031531 154.964474,150.167268 165.380679,158.039307 C153.75558,183.679321 151.496412,202.930364 152.246263,215.87416 C133.228399,184.741746 117.921337,147.876564 111.879265,105.410817 C122.713656,100.942382 130.385212,85.6598091 128.969627,60.5341817 C127.308899,31.0458819 99.9609545,0 99.9609545,0 C99.9609545,0 77.3164047,33.8629905 78.9843433,63.3560976 C80.5970044,91.9694592 91.5107065,106.639095 104.767694,106.776105 C106.642322,119.864122 109.37255,132.428137 112.809369,144.468151 C107.937739,141.425097 102.969973,139.232945 98.4636551,137.682573 C97.02644,130.029268 88.0786945,123.039378 71.50025,120.763097 C52.162737,118.104631 28.5688562,131.908943 28.5688562,131.908943 C28.5688562,131.908943 47.6588221,150.883563 66.9939317,153.542029 C83.6805278,155.835136 94.1447997,151.96041 97.5047106,145.037823 C103.647724,147.292471 110.557412,150.78982 116.457684,156.231743 C131.315316,200.956946 155.690292,237.968752 180.908851,267.074867 C148.03556,265.373065 113.143438,247.689219 87.2254982,231.089431 C91.2367223,219.962814 84.8101116,203.959138 64.708327,188.368894 C41.3692034,170.269212 0,170.528809 0,170.528809 C0,170.528809 10.6877853,209.840933 34.0293122,227.943019 C56.433525,245.31679 74.5140756,246.864758 83.4233673,237.295723 C85.6488876,238.721103 87.9152653,240.15129 90.2609542,241.579074 C100.960756,248.097844 111.324087,253.63351 121.343735,258.222128 C116.082759,259.919123 111.381768,262.193001 107.411401,264.522163 C100.667545,260.630612 89.5351365,262.875645 77.0111768,273.978226 C62.4083022,286.924426 57.5198481,313.823966 57.5198481,313.823966 C57.5198481,313.823966 84.3534714,311.684694 98.9539426,298.740898 C111.557214,287.568611 115.433849,277.098197 112.367149,270.041004 C117.940564,266.921032 124.888705,264.039024 132.627556,263.031884 C151.825674,270.615483 169.63945,274.466172 185.881423,274.466172 C186.405358,274.466172 186.917275,274.444539 187.438807,274.437328 C192.579614,280.076352 197.725229,285.398091 202.801146,290.380912 C259.14815,345.696713 319.302091,373.403888 319.902933,373.675504 C320.386011,373.896642 320.893122,374 321.393023,374 C322.762943,374 324.07278,373.216402 324.676026,371.887169 C325.500382,370.074797 324.700059,367.937929 322.887919,367.113468" id="Fill-3" fill="#3BB3E7" mask="url(#mask-2)"></path>
            </g>
        </g>
    </g>
</svg>