<?xml version="1.0" encoding="UTF-8"?>
<svg width="16px" height="16px" viewBox="0 0 16 16" version="1.1" xmlns="http://www.w3.org/2000/svg" xmlns:xlink="http://www.w3.org/1999/xlink">
    <title>FC0DCA3D-9A94-4636-969D-6BE1A874D908</title>
    <g id="Page-1" stroke="none" stroke-width="1" fill="none" fill-rule="evenodd">
        <g id="1" transform="translate(-272.000000, -4146.000000)" fill="#204EFF" fill-rule="nonzero">
            <g id="Icon/facebook-Dark" transform="translate(272.000000, 4146.000000)">
                <path d="M13.0333333,9.70666667 C13.0129922,9.87498835 12.8695419,10.0012246 12.7,10 L11.3333333,10 C11.1492384,10 11,10.1492384 11,10.3333333 L11,15.6666667 C11,15.8507616 11.1492384,16 11.3333333,16 L15.3333333,16 C15.7015232,16 16,15.7015232 16,15.3333333 L16,0.666666667 C16,0.298476833 15.7015232,0 15.3333333,0 L0.666666667,0 C0.298476833,0 0,0.298476833 0,0.666666667 L0,15.3333333 C0,15.7015232 0.298476833,16 0.666666667,16 L8,16 C8.18409492,16 8.33333333,15.8507616 8.33333333,15.6666667 L8.33333333,10.3333333 C8.33333333,10.1492384 8.18409492,10 8,10 L6.66666667,10 C6.48257175,10 6.33333333,9.85076158 6.33333333,9.66666667 L6.33333333,7.66666667 C6.33333333,7.48257175 6.48257175,7.33333333 6.66666667,7.33333333 L8,7.33333333 C8.18409492,7.33333333 8.33333333,7.18409492 8.33333333,7 L8.33333333,6.12666667 C8.33333333,4.03166652 10.0316665,2.33333333 12.1266667,2.33333333 L13,2.33333333 C13.0884055,2.33333333 13.1731901,2.36845228 13.2357023,2.43096441 C13.2982144,2.49347653 13.3333333,2.57826117 13.3333333,2.66666667 L13.3333333,4.66666667 C13.3333333,4.85076158 13.1840949,5 13,5 L12.1266667,5 C11.5044258,5 11,5.50442585 11,6.12666667 L11,7 C11,7.18409492 11.1492384,7.33333333 11.3333333,7.33333333 L12.9533333,7.33333333 C13.0491266,7.3326408 13.1405875,7.37319502 13.204389,7.4446527 C13.2681905,7.51611038 13.2981647,7.61156342 13.2866667,7.70666667 L13.0333333,9.70666667 Z" id="Shape"></path>
            </g>
        </g>
    </g>
</svg>