<?xml version="1.0" encoding="UTF-8"?>
<svg width="16px" height="16px" viewBox="0 0 16 16" version="1.1" xmlns="http://www.w3.org/2000/svg" xmlns:xlink="http://www.w3.org/1999/xlink">
    <title>659706C6-F2F7-42DF-A3D1-A9D6828EAB6D</title>
    <g id="Page-1" stroke="none" stroke-width="1" fill="none" fill-rule="evenodd">
        <g id="1" transform="translate(-328.000000, -4146.000000)" fill="#FF4765" fill-rule="nonzero">
            <g id="Icon/Insta-Dark" transform="translate(328.000000, 4146.000000)">
                <path d="M11.6666667,0 L4.33333333,0 C1.94162168,0.00367109113 0.00367109113,1.94162168 0,4.33333333 L0,11.6666667 C0.00367109113,14.0583783 1.94162168,15.9963289 4.33333333,16 L11.6666667,16 C14.0583783,15.9963289 15.9963289,14.0583783 16,11.6666667 L16,4.33333333 C15.9963289,1.94162168 14.0583783,0.00367109113 11.6666667,0 Z M8,11.6666667 C5.97495592,11.6666667 4.33333333,10.0250441 4.33333333,8 C4.33333333,5.97495592 5.97495592,4.33333333 8,4.33333333 C10.0250441,4.33333333 11.6666667,5.97495592 11.6666667,8 C11.6666667,8.97246046 11.2803583,9.90509148 10.5927249,10.5927249 C9.90509148,11.2803583 8.97246046,11.6666667 8,11.6666667 Z M12.3333333,4.33333333 C11.7810486,4.33333333 11.3333333,3.88561808 11.3333333,3.33333333 C11.3333333,2.78104858 11.7810486,2.33333333 12.3333333,2.33333333 C12.8856181,2.33333333 13.3333333,2.78104858 13.3333333,3.33333333 C13.3333333,3.59854982 13.2279765,3.85290374 13.0404401,4.04044011 C12.8529037,4.22797649 12.5985498,4.33333333 12.3333333,4.33333333 Z" id="Shape"></path>
            </g>
        </g>
    </g>
</svg>